<svg width="32" height="25" viewBox="0 0 32 25" fill="none" xmlns="http://www.w3.org/2000/svg">
  <path id="Quote" d="M0 18.2503C0 22.0649 2.9404 24.9258 6.6755 24.9258C10.4106 24.9258 13.351 22.0649 13.351 18.2503C13.351 15.6278 11.9205 13.4026 9.77484 12.3695L14.2252 0.925781H7.94702L2.06623 12.3695C0.715232 14.992 0 16.6609 0 18.2503ZM17.0066 18.2503C17.0066 22.0649 19.947 24.9258 23.6821 24.9258C27.4967 24.9258 30.3576 22.0649 30.3576 18.2503C30.3576 15.6278 28.9272 13.4026 26.7815 12.3695L31.2318 0.925781H24.9536L19.0729 12.3695C17.7219 14.992 17.0066 16.6609 17.0066 18.2503Z" fill="url(#paint0_linear_blue_cyan)"/>
  <defs>
    <linearGradient id="paint0_linear_blue_cyan" x1="-3.19956e-07" y1="1.65569" x2="23.191" y2="31.8347" gradientUnits="userSpaceOnUse">
      <stop stop-color="#6260ff"/>
      <stop offset="1" stop-color="#7c86ff"/>
    </linearGradient>
  </defs>
</svg>